<svg version="1.2" xmlns="http://www.w3.org/2000/svg" viewBox="0 0 2362 2362" width="2362" height="2362">
	<title>矢量小猫-svg</title>
	<style>
		tspan { white-space:pre } 
		.s0 { fill: #ffffff } 
		.s1 { fill: #a0a0a0 } 
		.s2 { fill: #040000 } 
		.s3 { fill: #818181 } 
		.s4 { fill: #000000 } 
		.t5 { font-size: 300px;fill: #000000;font-weight: 400;font-family: "SourceHanSansSC-Regular", "Source Han Sans SC" } 
	</style>
	<path id="背景" class="s0" d="m0 0h2362v2362h-2362z"/>
	<path id="形状_3" fill-rule="evenodd" class="s1" d="m1426 423c0 0 31.7 8 47 20 27.4 21.5 63 63 63 63 0 0 36 49.3 63 106 28.9 60.6 52 127.6 52 127.6-1.7 0.8 46.5 122.6 42 241.4-4.5 118.2-63 234-63 234 0 0-70.8 112.8-161 184-95.7 75.6-211 110-211 110 0 0-164 45.9-280 46-79.9 0.1-168.6-19.6-236-39-67-19.3-113-44-113-44 0 0-58.2-30.4-109-73-43.5-36.4-79.1-79.5-114-130-78-112.9-101-230-101-230 0 0-21.3-130.5-13-260 9.2-144.2 51-291 51-291 0 0 44-180.5 96-270 28.5-49 69-54 69-54 0 0 1.1-2.3 26.4 7.8 27.4 11 50.1 75.1 81.6 106.2 19.9 19.7 43 34 43 34 0 0 77-55.5 197-77 51.9-9.3 107.9-9.1 160-7q16 0.7 31.9 1.9 16 1.3 31.9 3.2 15.9 1.9 31.7 4.3 15.8 2.5 31.5 5.6c0 0 37.1-39.6 58-54 10.5-7.3 55.5-33.3 72-34 28.8-1.3 38 21 38 21 0 0 9 48.2 8 96-1 50.2-10 101-10 101"/>
	<path id="形状_4" fill-rule="evenodd" class="s1" d="m1700 859c0 0 97.4-66.5 208-102 48.7-15.6 98.6-30.7 141-37 54.1-8 95-5 95-5 0 0 46.9 1.4 84 19 33.2 15.8 49 38 49 38 0 0 14.1 27.5 5 52-10.4 27.9-40 55-40 55 0 0-43.4 36.4-89 64-49.3 29.8-103 53-103 53 0 0-95.8 44.8-192 80-89.6 32.8-176 57-176 57"/>
	<path id="形状_5" fill-rule="evenodd" class="s0" d="m951 881c0 0 124.6-10 220 22 95.6 32 165 108 165 108 0 0 50.9 61.6 72 125 21.4 64.1 13 130 13 130 0 0-3.4 54.6-17 104-14.4 52.5-39 100-39 100l-356 83-217-24c0 0-49.8-28.7-84-76-36.2-50.1-60-113-60-113 0 0-17.7-85.4-9-158 7.8-65.5 45-125 45-125 0 0 37.7-68.2 103-113 65.3-44.8 164-63 164-63z"/>
	<path id="形状_6" fill-rule="evenodd" class="s2" d="m621 624c0 0 18.8-5 34 1 13.7 5.4 24 21 24 21 0 0 9 13.5 9 29 0 8.6 0.3 21-3 29q-0.8 2-1.8 4-1 2-2.1 3.8-1.2 1.9-2.4 3.7-1.3 1.8-2.7 3.5c-0.9 1.1-6.1 7.7-19 11-12.6 3.2-29-3-29-3 0 0-12.3-6-20-17-8.7-12.4-12-29-12-29 0 0-4.5-20.7 2-35 6.5-14.2 23-22 23-22z"/>
	<path id="形状_7" fill-rule="evenodd" class="s2" d="m993 634q-2-1-3.9-2.2-1.9-1.2-3.7-2.5-1.8-1.4-3.4-3-1.6-1.6-3-3.3-1.6-1.7-3-3.5-1.4-1.9-2.5-3.9-1.1-2.1-2-4.2-0.9-2.2-1.5-4.4c-2.5-9.7 1-29 1-29 0 0 3.8-14.1 16-23 11.8-8.6 30-7 30-7 0 0 19.4-0.4 30 11 10.9 11.6 12 31 12 31 0 0-0.6 23.5-11 35-11.2 12.4-35 13-35 13 0 0-11.6 0.1-20-4z"/>
	<path id="形状_8" fill-rule="evenodd" class="s2" d="m772 777l67 1c0 0 30.5 0.8 58-5q5.9-1.3 11.6-2.9 5.8-1.7 11.4-3.7 5.6-2 11.2-4.3 5.5-2.4 10.8-5.1l32-22c0 0 8.2-6.2 17-7q1.9-0.1 3.8-0.1 1.9 0.1 3.8 0.3 1.9 0.3 3.7 0.7 1.9 0.5 3.7 1.1 1.9 1 3.8 2.1 1.9 1.1 3.6 2.3 1.8 1.3 3.4 2.7 1.7 1.4 3.2 2.9c4.9 5.1 8 13 8 13 0 0 2.9 15.2-3 25-6.6 11.1-21 19-21 19 0 0-21.7 17-47 27-25.2 10-53 16-53 16 0 0-30.5 5.5-60 6q-7 0.1-14-0.1-7-0.1-14-0.5-7.1-0.4-14-1-7-0.6-14-1.4c-4.6-0.5-14.1 0.1-24-5-9.5-4.9-15-15-15-15 0 0-3.2-8.8-2-15q0.4-1.8 0.9-3.6 0.6-1.8 1.2-3.6 0.6-1.7 1.3-3.4 0.8-1.7 1.6-3.4c0.6-1.1 3.2-6.9 8-11q1.3-1.1 2.7-2 1.5-0.9 3-1.6 1.5-0.8 3.1-1.4 1.6-0.6 3.2-1z"/>
	<path id="形状_1" fill-rule="evenodd" class="s3" d="m1888 776c0 0 19.3 3.2 34 11 17.1 9.1 30 23 30 23 0 0 12.8 15.3 19 30q1.3 3.2 2.3 6.5 1 3.3 1.6 6.7 0.6 3.4 0.9 6.9 0.3 3.4 0.2 6.9c0 0 3.3 14.8-2 25-6.6 12.6-23 25-23 25 0 0-15.5 7.1-29 9-11.9 1.6-26-6-26-6 0 0-9.4-10.6-15-22q-1.4-2.9-2.6-5.8-1.3-3-2.4-6-1.2-3-2.2-6.1-0.9-3-1.8-6.1-2-3.6-4.1-7.2-2.2-3.6-4.4-7.1-2.3-3.5-4.6-6.9-2.4-3.5-4.9-6.8c-13.3-17.3-33-34-33-34zm226-45c0 0 16 9.5 26 22 10 12.5 14 28 14 28 0 0 9.2 22.3 10 37q0.1 2.8-0.2 5.5-0.4 2.8-1.1 5.5-0.8 2.7-2 5.2-1.1 2.5-2.7 4.8c-1 1.5-6.1 11.7-13 16-8.1 5.1-18 7-18 7 0 0-10.6 0.1-16-4-5.1-3.9-8-18-8-18 0 0-0.2-7.3-5-17-4.1-8.2-12-21-12-21 0 0-12.1-21.9-29-36-17.1-14.3-40-18-40-18z"/>
	<path id="形状_2" fill-rule="evenodd" class="s3" d="m334 1072q2.7-0.6 5.4-1 2.8-0.4 5.5-0.6 2.8-0.3 5.6-0.4 2.7-0.1 5.5 0 2.3 0.1 4.5 0.3 2.3 0.2 4.5 0.5 2.3 0.2 4.5 0.5 2.3 0.3 4.5 0.7 1.8 1 3.4 2.2 1.7 1.3 3.2 2.6 1.5 1.4 2.9 3 1.3 1.5 2.5 3.2c4.9 7.1 5 17 5 17 0 0-1.4 18.2-10 34-9.4 17.1-26 31-26 31zm-28-100l22-2c0 0 27.8-6.2 48-15 18.8-8.2 36-21 36-21 0 0 10.2-13.7 13-29 2.7-14.7-1.7-31.9-3-33q-2-1.6-4.1-3-2.1-1.4-4.4-2.5-2.3-1.2-4.6-2-2.4-0.9-4.9-1.5c-10.8-2.7-25-1-25-1 0 0-17.4 3.4-35 6-19.8 2.9-41 2-41 2zm432-687v90c0 0 0.4 20.5 5 37q1.1 3.7 2.5 7.2 1.5 3.6 3.2 7 1.8 3.4 3.9 6.6 2 3.2 4.4 6.2c1.6 2 14.9 12.7 31 15 15.4 2.2 34-5 34-5 0 0 14.6-11.5 22-29 7.6-18 8-46 8-46l3-115-63-8zm226-56l-51 18q-1.2 5.7-2.3 11.4-1 5.7-1.9 11.5-0.9 5.7-1.6 11.5-0.7 5.8-1.2 11.6-0.4 6.4-0.7 12.7-0.2 6.4-0.2 12.8 0 6.4 0.2 12.8 0.3 6.3 0.7 12.7c0.3 4.2 2.4 24 10 41 6.3 14.3 19 23 19 23 0 0 13.6 7 28 7 15.5 0 29-8 29-8q2.4-2.2 4.5-4.7 2.2-2.4 4.1-5 1.8-2.7 3.5-5.5 1.6-2.8 2.9-5.8c6.6-14.7 12-38 12-38l4-95zm601 353c0 0-10.2-4.7-26-4-17.6 0.8-40 7-40 7l-51 28c0 0-21.3 11.7-31 27-9.3 14.7-6 34-6 34 0 0 7.9 22.5 26 30 17.9 7.5 47-1 47-1 0 0 21.5-7.4 39-18 15.4-9.3 60-56 60-56l-1-32zm58 126q-2.4 4.4-4.9 8.6-2.6 4.3-5.3 8.4-2.8 4.1-5.7 8.1-3 4-6.1 7.9c-12.4 14.9-26 30-26 30q-3.9 4.3-7.9 8.4-4 4.1-8.1 8.1-4.1 4-8.4 7.9-4.2 3.9-8.6 7.6c-20.3 17.2-37 31-37 31q-2 1.7-4.1 3.3-2 1.5-4.2 3-2.1 1.5-4.3 3-2.2 1.4-4.4 2.7c-8.5 4.9-22 14-22 14 0 0-9.7 10.8-13 21-4.1 13-3 27-3 27 0 0 3.9 26.6 15 36 15.1 12.8 45 5 45 5q9.4-5.1 18.7-10.5 9.3-5.4 18.4-11 9.1-5.7 18.1-11.5 9-5.9 17.8-12c38.8-26.9 72-63 72-63z"/>
	<path id="形状_9" fill-rule="evenodd" class="s4" d="m1266.4 132.6c72.4-4.7 78.4 26.1 75.6 90.4-1.1 24.3 0.5 44.9 0 69-0.5 26 0.4 58.8-5 82-2.7 11.7-7 21.1-19 23-21.3 3.4-37.2-5.2-35-26 5.9-55.9 3.8-120.6 4-182-0.8-0.3-1.8-1.5-4-2-2.5-0.6-6.1-0.6-7-1-19.8-0.7-56.8 14.2-84 53-10 14.3-35.6 28.8-68 29-23.8-4.1-49.3-4.3-86-9-53-8.6-139.9-1.4-199 6-45 5.7-85.9 24.6-122 43-18.4 9.4-33.8 33.1-58 34-20.8 0.8-47.8-24.5-68-52-14.5-19.7-25.4-40.3-32-51-8.3-13.5-30.8-48.7-52-44-46.7 10.8-74.8 100.6-92 145-42.4 109.4-65.3 231.8-86 360q-2.4 14.3-4.2 28.6-1.9 14.3-3.3 28.7-1.4 14.4-2.2 28.8-0.9 14.5-1.3 28.9c0 18.3-2 36.7-2 55 1.6 13.3-1.1 28.8 0 42 3.6 42.7 5.7 86 17 131 11.2 44.5 30.6 94.8 56 142 47.3 87.9 113.6 165.3 141.5 191.6 36.9 34.6 81.9 60.5 129.5 82.4 83 38.2 188.4 59.2 301 66 11 0.3 22 1.7 33 2 36.3 3.2 112.3-7.2 148-16 37.7-8.3 73.9-18.5 109-32 80.3-24.8 150.1-67 210-113 43.4-33.4 94.3-83.7 132-147 57.5-96.6 89.6-221.9 60-350-30.2-130.7-66.6-255.5-137-347-14.8-19.3-39.6-46.1-61-58-15-8.4-36.5-15.2-41-32-3-11.1 10.4-28.6 14-30 36.7-14.6 100.6 47.4 118 69 92.7 115.2 158.3 286.5 170 478 1.9 31-2.4 104.4-16 150-13.9 46.3-27 93.9-50 132-85.4 141.5-217.6 251.8-391 305-86.9 26.7-214.8 45.1-282 45-9.4 0-89.1-3.4-108-7-112.5-21.7-189.1-41.5-272-91-153.6-91.7-265.9-232.6-316-427-4.2-16.4-8-33.9-10-51-4.3-36.9-8.6-74.8-10-115-0.7-20.9-0.7-47.7 0-75 1.1-43.3 4.9-88 9-117 10.7-75.9 24.5-151.6 44-221 16.4-58.3 34.8-118.6 55-175 15.5-43.5 35.6-84.2 61-117 16.4-21.3 45.7-51.9 83-50 33.9 1.7 50.7 19.2 68 41 27.3 34.5 48.1 81.1 81 104 78-50.7 164-76.2 284-79 41.4-1 115.2 6.3 183 13 27.4-27.7 61.2-56.2 100-73 9.7-3.3 21.7-8.7 37.4-8.4z"/>
	<path id="形状_10" fill-rule="evenodd" class="s4" d="m2100 683c102.3-1.4 192.1 20.4 213 100 5.2 19.7 3.3 41.9-4 59q-12.5 19.5-25 39c-17.9 22.7-43.4 38.9-67 56-100.9 73.2-229.2 125.7-357 171-45.2 16-93.3 31-140 47-16.2 5.6-40.8 14.3-56 3-15.8-11.8-14-40 1-51q61-19.5 122-39c133.6-47 269.5-97.6 378-171 21.2-14.4 94.6-61 89-95-8-49-115.2-64.8-180-54-122.1 20.3-224 58.2-313 111-19.7 11.7-65.3 50.6-87 19-27.6-40.2 52.2-72.5 76-85 72.4-37.9 150.3-67.5 238-93l76-14z"/>
	<text id="我是矢量小猫" style="transform: matrix(1,0,0,1,204,1804)" >
		<tspan x="38" y="238.8" class="t5">我是</tspan><tspan  y="238.8" class="t5">矢量</tspan><tspan  y="238.8" class="t5">小猫</tspan><tspan  y="238.8" class="t5">
</tspan>
	</text>
</svg>