<svg version="1.2" xmlns="http://www.w3.org/2000/svg" viewBox="0 0 850 64" width="850" height="64">
	<title>test-svg</title>
	<style>
		tspan { white-space:pre } 
		.s0 { fill: #a0a0a0 } 
		.s1 { fill: #ffffff } 
		.s2 { fill: #040000 } 
		.s3 { fill: #818181 } 
		.s4 { fill: #000000 } 
		.s5 { fill: #808080;stroke: #000000;stroke-width: 3 } 
		.t6 { font-size: 1px;line-height: 1px;fill: #ffffff;font-family: "Liberation Sans" } 
	</style>
	<rect width="100%" height="100%" fill="#eee3"/>
	<g id="编组 1">
		<path id="形状_3" fill-rule="evenodd" class="s0" d="m806.8 15.2c0 0 1.2 0.3 1.8 0.7 1.1 0.9 2.4 2.5 2.4 2.5 0 0 1.4 1.9 2.4 4 1.2 2.4 2 4.9 2 4.9 0 0.1 1.8 4.8 1.7 9.3-0.2 4.6-2.5 9-2.5 9 0 0-2.7 4.4-6.2 7.1-3.6 2.9-8.1 4.2-8.1 4.2 0 0-6.3 1.8-10.7 1.8-3.1 0-6.5-0.8-9.1-1.5-2.6-0.8-4.3-1.7-4.3-1.7 0 0-2.3-1.2-4.2-2.8-1.7-1.4-3.1-3.1-4.4-5-3-4.3-3.9-8.8-3.9-8.8 0 0-0.8-5.1-0.5-10 0.4-5.6 2-11.2 2-11.2 0 0 1.7-7 3.7-10.4 1.1-1.9 2.6-2.1 2.6-2.1 0 0 0.1-0.1 1 0.3 1.1 0.4 2 2.9 3.2 4.1 0.7 0.8 1.6 1.3 1.6 1.3 0 0 3-2.1 7.6-2.9 2-0.4 4.1-0.4 6.1-0.3q0.7 0 1.3 0.1 0.6 0 1.2 0.1 0.6 0.1 1.2 0.1 0.6 0.1 1.2 0.3c0 0 1.4-1.6 2.2-2.1 0.5-0.3 2.2-1.3 2.8-1.3 1.1-0.1 1.5 0.8 1.5 0.8 0 0 0.3 1.8 0.3 3.7-0.1 1.9-0.4 3.9-0.4 3.9"/>
		<path id="形状_4" fill-rule="evenodd" class="s0" d="m817.3 31.9c0 0 3.8-2.5 8-3.9 1.9-0.6 3.8-1.2 5.4-1.4 2.1-0.3 3.7-0.2 3.7-0.2 0 0 1.8 0.1 3.2 0.7 1.3 0.6 1.9 1.5 1.9 1.5 0 0 0.5 1 0.2 2-0.4 1.1-1.5 2.1-1.5 2.1 0 0-1.7 1.4-3.5 2.5-1.9 1.1-3.9 2-3.9 2 0 0-3.7 1.7-7.4 3.1-3.4 1.2-6.8 2.2-6.8 2.2"/>
		<path id="形状_5" fill-rule="evenodd" class="s1" d="m788.5 32.8c0 0 4.8-0.4 8.5 0.8 3.7 1.3 6.3 4.2 6.3 4.2 0 0 2 2.3 2.8 4.8 0.8 2.4 0.5 5 0.5 5 0 0-0.1 2.1-0.6 4-0.6 2-1.5 3.8-1.5 3.8l-13.7 3.2-8.4-0.9c0 0-1.9-1.1-3.2-2.9-1.4-2-2.3-4.4-2.3-4.4 0 0-0.7-3.3-0.4-6 0.3-2.6 1.8-4.9 1.8-4.9 0 0 1.4-2.6 3.9-4.3 2.5-1.7 6.3-2.4 6.3-2.4z"/>
		<path id="形状_6" fill-rule="evenodd" class="s2" d="m775.9 22.9c0 0 0.7-0.2 1.3 0 0.5 0.2 0.9 0.8 0.9 0.8 0 0 0.3 0.6 0.3 1.2 0 0.3 0 0.8-0.1 1.1q0 0.1-0.1 0.1 0 0.1 0 0.2-0.1 0.1-0.1 0.1-0.1 0.1-0.1 0.2c-0.1 0-0.3 0.3-0.8 0.4-0.4 0.1-1.1-0.1-1.1-0.1 0 0-0.4-0.3-0.7-0.7-0.4-0.5-0.5-1.1-0.5-1.1 0 0-0.2-0.8 0.1-1.4 0.2-0.5 0.9-0.8 0.9-0.8z"/>
		<path id="形状_7" fill-rule="evenodd" class="s2" d="m790.2 23.3q-0.1-0.1-0.2-0.1-0.1 0-0.1-0.1-0.1 0-0.2-0.1 0-0.1-0.1-0.1 0-0.1-0.1-0.2-0.1 0-0.1-0.1 0-0.1-0.1-0.2 0-0.1 0-0.1c-0.1-0.4 0-1.2 0-1.2 0 0 0.2-0.5 0.6-0.8 0.5-0.4 1.2-0.3 1.2-0.3 0 0 0.7 0 1.1 0.4 0.4 0.5 0.5 1.2 0.5 1.2 0 0 0 0.9-0.4 1.3-0.5 0.5-1.4 0.5-1.4 0.5 0 0-0.4 0-0.7-0.1z"/>
		<path id="形状_8" fill-rule="evenodd" class="s2" d="m781.7 28.8h2.5c0 0 1.2 0.1 2.3-0.2q0.2 0 0.4-0.1 0.2 0 0.4-0.1 0.3-0.1 0.5-0.2 0.2-0.1 0.4-0.2l1.2-0.8c0 0 0.3-0.3 0.7-0.3q0.1 0 0.1 0 0.1 0 0.2 0 0 0 0.1 0 0.1 0.1 0.2 0.1 0 0 0.1 0.1 0.1 0 0.1 0 0.1 0.1 0.2 0.2 0 0 0.1 0.1c0.2 0.2 0.3 0.5 0.3 0.5 0 0 0.1 0.5-0.1 0.9-0.3 0.4-0.8 0.8-0.8 0.8 0 0-0.9 0.6-1.8 1-1 0.4-2.1 0.6-2.1 0.6 0 0-1.1 0.2-2.3 0.2q-0.2 0-0.5 0-0.3 0-0.5 0-0.3 0-0.6 0-0.3 0-0.5-0.1c-0.2 0-0.6 0-0.9-0.2-0.4-0.2-0.6-0.5-0.6-0.5 0 0-0.1-0.4-0.1-0.6q0-0.1 0-0.2 0.1 0 0.1-0.1 0-0.1 0-0.1 0.1-0.1 0.1-0.2c0 0 0.1-0.2 0.3-0.4q0 0 0.1-0.1 0.1 0 0.1 0 0.1-0.1 0.1-0.1 0.1 0 0.2 0z"/>
		<path id="形状_1" fill-rule="evenodd" class="s3" d="m824.6 28.7c0 0 0.7 0.2 1.3 0.5 0.6 0.3 1.1 0.9 1.1 0.9 0 0 0.5 0.5 0.7 1.1q0.1 0.1 0.1 0.3 0.1 0.1 0.1 0.2 0 0.1 0 0.3 0 0.1 0 0.2c0 0 0.2 0.6 0 1-0.3 0.5-0.9 1-0.9 1 0 0-0.6 0.2-1.1 0.3-0.5 0.1-1-0.2-1-0.2 0 0-0.4-0.4-0.6-0.9q-0.1-0.1-0.1-0.2-0.1-0.1-0.1-0.2-0.1-0.1-0.1-0.3 0-0.1-0.1-0.2 0-0.1-0.1-0.3-0.1-0.1-0.2-0.2-0.1-0.2-0.2-0.3-0.1-0.1-0.2-0.3c-0.5-0.6-1.2-1.3-1.2-1.3zm8.7-1.7c0 0 0.6 0.4 1 0.8 0.3 0.5 0.5 1.1 0.5 1.1 0 0 0.4 0.9 0.4 1.4q0 0.2 0 0.3 0 0.1-0.1 0.2 0 0.1 0 0.2-0.1 0.1-0.1 0.2c-0.1 0-0.3 0.4-0.5 0.6-0.4 0.2-0.7 0.2-0.7 0.2 0 0-0.4 0-0.7-0.1-0.1-0.2-0.3-0.7-0.3-0.7 0 0 0-0.3-0.2-0.7-0.1-0.3-0.4-0.8-0.4-0.8 0 0-0.5-0.8-1.1-1.4-0.7-0.5-1.6-0.6-1.6-0.6z"/>
		<path id="形状_2" fill-rule="evenodd" class="s3" d="m764.7 40.3q0.1 0 0.2-0.1 0.1 0 0.2 0 0.1 0 0.2 0 0.1 0 0.2 0 0.1 0 0.2 0 0.1 0 0.2 0 0.1 0 0.1 0 0.1 0.1 0.2 0.1 0.1 0 0.1 0.1 0.1 0 0.2 0.1 0 0 0.1 0.1 0 0 0.1 0.1c0.2 0.3 0.2 0.7 0.2 0.7 0 0-0.1 0.7-0.4 1.3-0.4 0.6-1 1.2-1 1.2zm-1.1-3.9l0.8-0.1c0 0 1.1-0.2 1.9-0.5 0.7-0.4 1.4-0.9 1.4-0.9 0 0 0.4-0.5 0.5-1.1 0.1-0.5-0.1-1.2-0.1-1.2q-0.1-0.1-0.2-0.2-0.1 0-0.2 0-0.1-0.1-0.1-0.1-0.1-0.1-0.2-0.1c-0.4-0.1-1 0-1 0 0 0-0.7 0.1-1.3 0.2-0.8 0.1-1.6 0.1-1.6 0.1zm16.6-26.4v3.4c0 0 0 0.8 0.2 1.5q0 0.1 0.1 0.2 0 0.2 0.1 0.3 0.1 0.1 0.2 0.3 0 0.1 0.1 0.2c0.1 0.1 0.6 0.5 1.2 0.6 0.6 0.1 1.3-0.2 1.3-0.2 0 0 0.6-0.5 0.9-1.1 0.3-0.7 0.3-1.8 0.3-1.8l0.1-4.4-2.4-0.3zm8.7-2.2l-2 0.7q-0.1 0.2-0.1 0.5 0 0.2-0.1 0.4 0 0.2 0 0.4-0.1 0.3-0.1 0.5 0 0.2 0 0.5 0 0.2 0 0.5 0 0.2 0 0.5 0 0.2 0 0.4c0 0.2 0.1 1 0.4 1.6 0.3 0.6 0.7 0.9 0.7 0.9 0 0 0.6 0.3 1.1 0.3 0.6 0 1.1-0.3 1.1-0.3q0.1-0.1 0.2-0.2 0.1-0.1 0.2-0.2 0-0.1 0.1-0.2 0.1-0.1 0.1-0.2c0.3-0.6 0.5-1.5 0.5-1.5l0.1-3.7zm23.1 13.6c0 0-0.4-0.2-1-0.1-0.7 0-1.5 0.2-1.5 0.2l-2 1.1c0 0-0.8 0.5-1.2 1-0.3 0.6-0.2 1.3-0.2 1.3 0 0 0.3 0.9 1 1.2 0.7 0.3 1.8 0 1.8 0 0 0 0.8-0.3 1.5-0.7 0.6-0.4 2.3-2.2 2.3-2.2v-1.2zm2.2 4.8q-0.1 0.2-0.2 0.4-0.1 0.1-0.2 0.3-0.1 0.1-0.2 0.3-0.1 0.2-0.2 0.3c-0.5 0.6-1 1.2-1 1.2q-0.2 0.1-0.3 0.3-0.2 0.1-0.4 0.3-0.1 0.1-0.3 0.3-0.1 0.1-0.3 0.3c-0.8 0.6-1.4 1.2-1.4 1.2q-0.1 0-0.2 0.1-0.1 0.1-0.2 0.1 0 0.1-0.1 0.1-0.1 0.1-0.2 0.1c-0.3 0.2-0.8 0.6-0.8 0.6 0 0-0.4 0.4-0.5 0.8-0.2 0.5-0.1 1-0.1 1 0 0 0.1 1 0.5 1.4 0.6 0.5 1.8 0.2 1.8 0.2q0.3-0.2 0.7-0.4 0.3-0.2 0.7-0.4 0.3-0.3 0.7-0.5 0.3-0.2 0.7-0.4c1.5-1.1 2.7-2.5 2.7-2.5z"/>
		<path id="形状_9" fill-rule="evenodd" class="s4" d="m800.7 4c2.7-0.2 3 1 2.9 3.5-0.1 0.9 0 1.7 0 2.6-0.1 1 0 2.3-0.2 3.2-0.1 0.4-0.3 0.8-0.8 0.9-0.8 0.1-1.4-0.2-1.3-1 0.2-2.2 0.1-4.7 0.2-7-0.1 0-0.1-0.1-0.2-0.1-0.1 0-0.2 0-0.3 0-0.7-0.1-2.2 0.5-3.2 2-0.4 0.6-1.4 1.1-2.6 1.1-0.9-0.1-1.9-0.1-3.3-0.3-2.1-0.4-5.4-0.1-7.7 0.2-1.7 0.2-3.3 1-4.7 1.7-0.7 0.3-1.3 1.2-2.2 1.3-0.8 0-1.8-1-2.6-2-0.6-0.8-1-1.6-1.2-2-0.3-0.5-1.2-1.9-2-1.7-1.8 0.4-2.9 3.9-3.6 5.6-1.6 4.2-2.5 8.9-3.3 13.8q-0.1 0.6-0.1 1.1-0.1 0.6-0.2 1.1 0 0.6 0 1.1-0.1 0.6-0.1 1.1c0 0.7-0.1 1.5-0.1 2.2 0.1 0.5 0 1.1 0 1.6 0.2 1.6 0.3 3.3 0.7 5 0.4 1.7 1.2 3.7 2.1 5.5 1.9 3.3 4.4 6.3 5.5 7.3 1.4 1.4 3.1 2.4 5 3.2 3.1 1.5 7.2 2.3 11.5 2.5 0.4 0 0.9 0.1 1.3 0.1 1.4 0.1 4.3-0.3 5.7-0.6q2.2-0.5 4.2-1.2c3.1-1 5.7-2.6 8-4.4 1.7-1.3 3.7-3.2 5.1-5.6 2.2-3.7 3.5-8.6 2.3-13.5-1.1-5-2.5-9.8-5.2-13.3-0.6-0.8-1.6-1.8-2.4-2.2-0.6-0.4-1.4-0.6-1.6-1.3-0.1-0.4 0.4-1.1 0.6-1.1 1.4-0.6 3.8 1.8 4.5 2.6 3.6 4.5 6.1 11 6.5 18.4 0.1 1.2-0.1 4-0.6 5.8-0.5 1.7-1 3.6-1.9 5-3.3 5.5-8.4 9.7-15 11.8-3.4 1-8.3 1.7-10.9 1.7-0.3 0-3.4-0.1-4.1-0.3-4.3-0.8-7.3-1.6-10.5-3.5-5.9-3.5-10.2-8.9-12.1-16.4-0.2-0.6-0.3-1.3-0.4-2-0.2-1.4-0.3-2.8-0.4-4.4 0-0.8 0-1.8 0-2.9 0.1-1.6 0.2-3.3 0.4-4.5 0.4-2.9 0.9-5.8 1.7-8.4 0.6-2.3 1.3-4.6 2.1-6.8 0.6-1.6 1.3-3.2 2.3-4.5 0.6-0.8 1.8-2 3.2-1.9 1.3 0.1 2 0.7 2.6 1.6 1.1 1.3 1.9 3.1 3.1 4 3-2 6.3-2.9 10.9-3.1 1.6 0 4.5 0.3 7.1 0.5 1-1 2.3-2.1 3.8-2.8 0.4-0.1 0.9-0.3 1.5-0.3z"/>
		<path id="形状_10" fill-rule="evenodd" class="s4" d="m832.7 25.2c3.9-0.1 7.4 0.8 8.2 3.8 0.2 0.8 0.1 1.6-0.2 2.3q-0.4 0.7-0.9 1.5c-0.7 0.9-1.7 1.5-2.6 2.1-3.9 2.8-8.8 4.9-13.7 6.6-1.8 0.6-3.6 1.2-5.4 1.8-0.6 0.2-1.6 0.6-2.2 0.1-0.6-0.4-0.5-1.5 0.1-1.9q2.3-0.8 4.7-1.5c5.1-1.8 10.3-3.8 14.5-6.6 0.8-0.6 3.6-2.3 3.4-3.7-0.3-1.8-4.4-2.4-6.9-2-4.7 0.8-8.6 2.2-12 4.2-0.8 0.5-2.5 2-3.4 0.8-1-1.6 2-2.8 2.9-3.3 2.8-1.5 5.8-2.6 9.2-3.6l2.9-0.5z"/>
	</g>
	<g id="编组 1 copy">
		<path id="形状_3" fill-rule="evenodd" class="s0" d="m56.8 15.2c0 0 1.2 0.3 1.8 0.7 1.1 0.9 2.4 2.5 2.4 2.5 0 0 1.4 1.9 2.4 4 1.2 2.4 2 4.9 2 4.9 0 0.1 1.8 4.8 1.7 9.3-0.2 4.6-2.5 9-2.5 9 0 0-2.7 4.4-6.2 7.1-3.6 2.9-8.1 4.2-8.1 4.2 0 0-6.3 1.8-10.7 1.8-3.1 0-6.5-0.8-9.1-1.5-2.6-0.8-4.3-1.7-4.3-1.7 0 0-2.3-1.2-4.2-2.8-1.7-1.4-3.1-3.1-4.4-5-3-4.3-3.9-8.8-3.9-8.8 0 0-0.8-5.1-0.5-10 0.4-5.6 2-11.2 2-11.2 0 0 1.7-7 3.7-10.4 1.1-1.9 2.6-2.1 2.6-2.1 0 0 0.1-0.1 1 0.3 1.1 0.4 2 2.9 3.2 4.1 0.7 0.8 1.6 1.3 1.6 1.3 0 0 3-2.1 7.6-2.9 2-0.4 4.1-0.4 6.1-0.3q0.7 0 1.3 0.1 0.6 0 1.2 0.1 0.6 0.1 1.2 0.1 0.6 0.1 1.2 0.3c0 0 1.4-1.6 2.2-2.1 0.5-0.3 2.2-1.3 2.8-1.3 1.1-0.1 1.5 0.8 1.5 0.8 0 0 0.3 1.8 0.3 3.7-0.1 1.9-0.4 3.9-0.4 3.9"/>
		<path id="形状_4" fill-rule="evenodd" class="s0" d="m67.3 31.9c0 0 3.8-2.5 8-3.9 1.9-0.6 3.8-1.2 5.4-1.4 2.1-0.3 3.7-0.2 3.7-0.2 0 0 1.8 0.1 3.2 0.7 1.3 0.6 1.9 1.5 1.9 1.5 0 0 0.5 1 0.2 2-0.4 1.1-1.5 2.1-1.5 2.1 0 0-1.7 1.4-3.5 2.5-1.9 1.1-3.9 2-3.9 2 0 0-3.7 1.7-7.4 3.1-3.4 1.2-6.8 2.2-6.8 2.2"/>
		<path id="形状_5" fill-rule="evenodd" class="s1" d="m38.5 32.8c0 0 4.8-0.4 8.5 0.8 3.7 1.3 6.3 4.2 6.3 4.2 0 0 2 2.3 2.8 4.8 0.8 2.4 0.5 5 0.5 5 0 0-0.1 2.1-0.6 4-0.6 2-1.5 3.8-1.5 3.8l-13.7 3.2-8.4-0.9c0 0-1.9-1.1-3.2-2.9-1.4-2-2.3-4.4-2.3-4.4 0 0-0.7-3.3-0.4-6 0.3-2.6 1.8-4.9 1.8-4.9 0 0 1.4-2.6 3.9-4.3 2.5-1.7 6.3-2.4 6.3-2.4z"/>
		<path id="形状_6" fill-rule="evenodd" class="s2" d="m25.9 22.9c0 0 0.7-0.2 1.3 0 0.5 0.2 0.9 0.8 0.9 0.8 0 0 0.3 0.6 0.3 1.2 0 0.3 0 0.8-0.1 1.1q0 0.1-0.1 0.1 0 0.1 0 0.2-0.1 0.1-0.1 0.1-0.1 0.1-0.1 0.2c-0.1 0-0.3 0.3-0.8 0.4-0.4 0.1-1.1-0.1-1.1-0.1 0 0-0.4-0.3-0.7-0.7-0.4-0.5-0.5-1.1-0.5-1.1 0 0-0.2-0.8 0.1-1.4 0.2-0.5 0.9-0.8 0.9-0.8z"/>
		<path id="形状_7" fill-rule="evenodd" class="s2" d="m40.2 23.3q-0.1-0.1-0.2-0.1-0.1 0-0.1-0.1-0.1 0-0.2-0.1 0-0.1-0.1-0.1 0-0.1-0.1-0.2-0.1 0-0.1-0.1 0-0.1-0.1-0.2 0-0.1 0-0.1c-0.1-0.4 0-1.2 0-1.2 0 0 0.2-0.5 0.6-0.8 0.5-0.4 1.2-0.3 1.2-0.3 0 0 0.7 0 1.1 0.4 0.4 0.5 0.5 1.2 0.5 1.2 0 0 0 0.9-0.4 1.3-0.5 0.5-1.4 0.5-1.4 0.5 0 0-0.4 0-0.7-0.1z"/>
		<path id="形状_8" fill-rule="evenodd" class="s2" d="m31.7 28.8h2.5c0 0 1.2 0.1 2.3-0.2q0.2 0 0.4-0.1 0.2 0 0.4-0.1 0.3-0.1 0.5-0.2 0.2-0.1 0.4-0.2l1.2-0.8c0 0 0.3-0.3 0.7-0.3q0.1 0 0.1 0 0.1 0 0.2 0 0 0 0.1 0 0.1 0.1 0.2 0.1 0 0 0.1 0.1 0.1 0 0.1 0 0.1 0.1 0.2 0.2 0 0 0.1 0.1c0.2 0.2 0.3 0.5 0.3 0.5 0 0 0.1 0.5-0.1 0.9-0.3 0.4-0.8 0.8-0.8 0.8 0 0-0.9 0.6-1.8 1-1 0.4-2.1 0.6-2.1 0.6 0 0-1.1 0.2-2.3 0.2q-0.2 0-0.5 0-0.3 0-0.5 0-0.3 0-0.6 0-0.3 0-0.5-0.1c-0.2 0-0.6 0-0.9-0.2-0.4-0.2-0.6-0.5-0.6-0.5 0 0-0.1-0.4-0.1-0.6q0-0.1 0-0.2 0.1 0 0.1-0.1 0-0.1 0-0.1 0.1-0.1 0.1-0.2c0 0 0.1-0.2 0.3-0.4q0 0 0.1-0.1 0.1 0 0.1 0 0.1-0.1 0.1-0.1 0.1 0 0.2 0z"/>
		<path id="形状_1" fill-rule="evenodd" class="s3" d="m74.6 28.7c0 0 0.7 0.2 1.3 0.5 0.6 0.3 1.1 0.9 1.1 0.9 0 0 0.5 0.5 0.7 1.1q0.1 0.1 0.1 0.3 0.1 0.1 0.1 0.2 0 0.1 0 0.3 0 0.1 0 0.2c0 0 0.2 0.6 0 1-0.3 0.5-0.9 1-0.9 1 0 0-0.6 0.2-1.1 0.3-0.5 0.1-1-0.2-1-0.2 0 0-0.4-0.4-0.6-0.9q-0.1-0.1-0.1-0.2-0.1-0.1-0.1-0.2-0.1-0.1-0.1-0.3 0-0.1-0.1-0.2 0-0.1-0.1-0.3-0.1-0.1-0.2-0.2-0.1-0.2-0.2-0.3-0.1-0.1-0.2-0.3c-0.5-0.6-1.2-1.3-1.2-1.3zm8.7-1.7c0 0 0.6 0.4 1 0.8 0.3 0.5 0.5 1.1 0.5 1.1 0 0 0.4 0.9 0.4 1.4q0 0.2 0 0.3 0 0.1-0.1 0.2 0 0.1 0 0.2-0.1 0.1-0.1 0.2c-0.1 0-0.3 0.4-0.5 0.6-0.4 0.2-0.7 0.2-0.7 0.2 0 0-0.4 0-0.7-0.1-0.1-0.2-0.3-0.7-0.3-0.7 0 0 0-0.3-0.2-0.7-0.1-0.3-0.4-0.8-0.4-0.8 0 0-0.5-0.8-1.1-1.4-0.7-0.5-1.6-0.6-1.6-0.6z"/>
		<path id="形状_2" fill-rule="evenodd" class="s3" d="m14.7 40.3q0.1 0 0.2-0.1 0.1 0 0.2 0 0.1 0 0.2 0 0.1 0 0.2 0 0.1 0 0.2 0 0.1 0 0.2 0 0.1 0 0.1 0 0.1 0.1 0.2 0.1 0.1 0 0.1 0.1 0.1 0 0.2 0.1 0 0 0.1 0.1 0 0 0.1 0.1c0.2 0.3 0.2 0.7 0.2 0.7 0 0-0.1 0.7-0.4 1.3-0.4 0.6-1 1.2-1 1.2zm-1.1-3.9l0.8-0.1c0 0 1.1-0.2 1.9-0.5 0.7-0.4 1.4-0.9 1.4-0.9 0 0 0.4-0.5 0.5-1.1 0.1-0.5-0.1-1.2-0.1-1.2q-0.1-0.1-0.2-0.2-0.1 0-0.2 0-0.1-0.1-0.1-0.1-0.1-0.1-0.2-0.1c-0.4-0.1-1 0-1 0 0 0-0.7 0.1-1.3 0.2-0.8 0.1-1.6 0.1-1.6 0.1zm16.6-26.4v3.4c0 0 0 0.8 0.2 1.5q0 0.1 0.1 0.2 0 0.2 0.1 0.3 0.1 0.1 0.2 0.3 0 0.1 0.1 0.2c0.1 0.1 0.6 0.5 1.2 0.6 0.6 0.1 1.3-0.2 1.3-0.2 0 0 0.6-0.5 0.9-1.1 0.3-0.7 0.3-1.8 0.3-1.8l0.1-4.4-2.4-0.3zm8.7-2.2l-2 0.7q-0.1 0.2-0.1 0.5 0 0.2-0.1 0.4 0 0.2 0 0.4-0.1 0.3-0.1 0.5 0 0.2 0 0.5 0 0.2 0 0.5 0 0.2 0 0.5 0 0.2 0 0.4c0 0.2 0.1 1 0.4 1.6 0.3 0.6 0.7 0.9 0.7 0.9 0 0 0.6 0.3 1.1 0.3 0.6 0 1.1-0.3 1.1-0.3q0.1-0.1 0.2-0.2 0.1-0.1 0.2-0.2 0-0.1 0.1-0.2 0.1-0.1 0.1-0.2c0.3-0.6 0.5-1.5 0.5-1.5l0.1-3.7zm23.1 13.6c0 0-0.4-0.2-1-0.1-0.7 0-1.5 0.2-1.5 0.2l-2 1.1c0 0-0.8 0.5-1.2 1-0.3 0.6-0.2 1.3-0.2 1.3 0 0 0.3 0.9 1 1.2 0.7 0.3 1.8 0 1.8 0 0 0 0.8-0.3 1.5-0.7 0.6-0.4 2.3-2.2 2.3-2.2v-1.2zm2.2 4.8q-0.1 0.2-0.2 0.4-0.1 0.1-0.2 0.3-0.1 0.1-0.2 0.3-0.1 0.2-0.2 0.3c-0.5 0.6-1 1.2-1 1.2q-0.2 0.1-0.3 0.3-0.2 0.1-0.4 0.3-0.1 0.1-0.3 0.3-0.1 0.1-0.3 0.3c-0.8 0.6-1.4 1.2-1.4 1.2q-0.1 0-0.2 0.1-0.1 0.1-0.2 0.1 0 0.1-0.1 0.1-0.1 0.1-0.2 0.1c-0.3 0.2-0.8 0.6-0.8 0.6 0 0-0.4 0.4-0.5 0.8-0.2 0.5-0.1 1-0.1 1 0 0 0.1 1 0.5 1.4 0.6 0.5 1.8 0.2 1.8 0.2q0.3-0.2 0.7-0.4 0.3-0.2 0.7-0.4 0.3-0.3 0.7-0.5 0.3-0.2 0.7-0.4c1.5-1.1 2.7-2.5 2.7-2.5z"/>
		<path id="形状_9" fill-rule="evenodd" class="s4" d="m50.7 4c2.7-0.2 3 1 2.9 3.5-0.1 0.9 0 1.7 0 2.6-0.1 1 0 2.3-0.2 3.2-0.1 0.4-0.3 0.8-0.8 0.9-0.8 0.1-1.4-0.2-1.3-1 0.2-2.2 0.1-4.7 0.2-7-0.1 0-0.1-0.1-0.2-0.1-0.1 0-0.2 0-0.3 0-0.7-0.1-2.2 0.5-3.2 2-0.4 0.6-1.4 1.1-2.6 1.1-0.9-0.1-1.9-0.1-3.3-0.3-2.1-0.4-5.4-0.1-7.7 0.2-1.7 0.2-3.3 1-4.7 1.7-0.7 0.3-1.3 1.2-2.2 1.3-0.8 0-1.8-1-2.6-2-0.6-0.8-1-1.6-1.2-2-0.3-0.5-1.2-1.9-2-1.7-1.8 0.4-2.9 3.9-3.6 5.6-1.6 4.2-2.5 8.9-3.3 13.8q-0.1 0.6-0.1 1.1-0.1 0.6-0.2 1.1 0 0.6 0 1.1-0.1 0.6-0.1 1.1c0 0.7-0.1 1.5-0.1 2.2 0.1 0.5 0 1.1 0 1.6 0.2 1.6 0.3 3.3 0.7 5 0.4 1.7 1.2 3.7 2.1 5.5 1.9 3.3 4.4 6.3 5.5 7.3 1.4 1.4 3.1 2.4 5 3.2 3.1 1.5 7.2 2.3 11.5 2.5 0.4 0 0.9 0.1 1.3 0.1 1.4 0.1 4.3-0.3 5.7-0.6q2.2-0.5 4.2-1.2c3.1-1 5.7-2.6 8-4.4 1.7-1.3 3.7-3.2 5.1-5.6 2.2-3.7 3.5-8.6 2.3-13.5-1.1-5-2.5-9.8-5.2-13.3-0.6-0.8-1.6-1.8-2.4-2.2-0.6-0.4-1.4-0.6-1.6-1.3-0.1-0.4 0.4-1.1 0.6-1.1 1.4-0.6 3.8 1.8 4.5 2.6 3.6 4.5 6.1 11 6.5 18.4 0.1 1.2-0.1 4-0.6 5.8-0.5 1.7-1 3.6-1.9 5-3.3 5.5-8.4 9.7-15 11.8-3.4 1-8.3 1.7-10.9 1.7-0.3 0-3.4-0.1-4.1-0.3-4.3-0.8-7.3-1.6-10.5-3.5-5.9-3.5-10.2-8.9-12.1-16.4-0.2-0.6-0.3-1.3-0.4-2-0.2-1.4-0.3-2.8-0.4-4.4 0-0.8 0-1.8 0-2.9 0.1-1.6 0.2-3.3 0.4-4.5 0.4-2.9 0.9-5.8 1.7-8.4 0.6-2.3 1.3-4.6 2.1-6.8 0.6-1.6 1.3-3.2 2.3-4.5 0.6-0.8 1.8-2 3.2-1.9 1.3 0.1 2 0.7 2.6 1.6 1.1 1.3 1.9 3.1 3.1 4 3-2 6.3-2.9 10.9-3.1 1.6 0 4.5 0.3 7.1 0.5 1-1 2.3-2.1 3.8-2.8 0.4-0.1 0.9-0.3 1.5-0.3z"/>
		<path id="形状_10" fill-rule="evenodd" class="s4" d="m82.7 25.2c3.9-0.1 7.4 0.8 8.2 3.8 0.2 0.8 0.1 1.6-0.2 2.3q-0.4 0.7-0.9 1.5c-0.7 0.9-1.7 1.5-2.6 2.1-3.9 2.8-8.8 4.9-13.7 6.6-1.8 0.6-3.6 1.2-5.4 1.8-0.6 0.2-1.6 0.6-2.2 0.1-0.6-0.4-0.5-1.5 0.1-1.9q2.3-0.8 4.7-1.5c5.1-1.8 10.3-3.8 14.5-6.6 0.8-0.6 3.6-2.3 3.4-3.7-0.3-1.8-4.4-2.4-6.9-2-4.7 0.8-8.6 2.2-12 4.2-0.8 0.5-2.5 2-3.4 0.8-1-1.6 2-2.8 2.9-3.3 2.8-1.5 5.8-2.6 9.2-3.6l2.9-0.5z"/>
	</g>
	<rect id="形状 1" class="s5" x="108" y="9" width="634" height="45" rx="10"></rect>
	<text text-anchor="middle" x="425px" y="43px" font-size="32px" fill="#eee">
	本仓库已收容37只小猫~
	</text>
</svg>